<?xml version="1.0" encoding="utf-8"?>
<!-- Generator: Adobe Illustrator 16.0.0, SVG Export Plug-In . SVG Version: 6.00 Build 0)  -->
<!DOCTYPE svg PUBLIC "-//W3C//DTD SVG 1.1//EN" "http://www.w3.org/Graphics/SVG/1.1/DTD/svg11.dtd">
<svg version="1.1" id="Layer_1" xmlns="http://www.w3.org/2000/svg" xmlns:xlink="http://www.w3.org/1999/xlink" x="0px" y="0px"
	 width="894.038px" height="172.36px" viewBox="0 0 894.038 172.36" enable-background="new 0 0 894.038 172.36"
	 xml:space="preserve">
<g>
	<path d="M61.703,126.634c-2.893-2.891-4.703-5.734-5.424-8.524c-0.725-2.79-1.293-6.2-1.705-10.229
		c-3.41,0-6.434,0.646-9.068,1.938c-2.635,1.293-5.4,2.61-8.292,3.952c-5.478,0.62-11.005,0.363-16.585-0.774
		c-5.58-1.137-10.385-3.617-14.415-7.44c-4.34-5.476-6.408-11.366-6.2-17.67c0.722-1.24,1.472-2.531,2.248-3.875
		c0.775-1.341,1.574-2.686,2.402-4.03c3.926-5.58,9.041-10.075,15.345-13.485c1.86-0.62,3.72-1.291,5.58-2.015
		c1.86-0.722,3.72-1.446,5.58-2.17c2.582-4.752,5.425-8.472,8.525-11.16c3.1-2.686,7.181-5.062,12.246-7.13
		c1.549-0.31,3.178-0.775,4.883-1.395s3.434-0.93,5.191-0.93c0.621-0.62,3.512-0.981,8.68-1.085c5.166-0.102,8.318,0.104,9.455,0.62
		c0.207,0.828,0.516,1.499,0.93,2.015c0.412-0.206,0.982-0.31,1.705-0.31c0.311,2.79,0.826,5.58,1.551,8.37
		c0.723,2.79,1.24,5.529,1.551,8.215c0.721,0.31,1.91,0.775,3.564,1.395c0-0.722,0.051-1.24,0.154-1.55
		c6.201-10.23,13.021-20.666,20.461-31.31c2.891-4.65,5.785-9.324,8.68-14.028c2.893-4.701,5.785-9.377,8.68-14.027
		c0.93,0.31,1.729,0.62,2.402,0.93c0.672,0.31,2.504,1.24,5.502,2.79c0.311,1.449,0.568,2.945,0.775,4.495
		c0.207,1.55,0.412,3.049,0.621,4.495l2.789,0.465c-7.439,10.128-14.701,20.281-21.777,30.458
		c-7.078,10.179-13.873,20.642-20.383,31.388c-2.789,3.308-5.605,6.614-8.447,9.92c-2.844,3.308-5.451,6.769-7.828,10.385
		c-0.93,1.55-1.912,3.231-2.943,5.038c-1.035,1.809-1.705,3.643-2.016,5.502c-0.828,0.724-1.395,2.48-1.705,5.27
		c-0.311,2.791-0.465,4.496-0.465,5.115c0,1.449,0,2.922,0,4.418c0,1.499,0,2.972,0,4.418c-2.895-0.207-5.115-0.311-6.666-0.311
		c-0.207,0.209-0.801,0.414-1.781,0.62C64.518,125.603,63.254,126.015,61.703,126.634z M64.029,58.28
		c-0.209-0.412-0.311-0.671-0.311-0.775c-2.998-1.446-6.277-1.473-9.842-0.078s-7.029,3.437-10.385,6.123
		c-3.36,2.688-6.409,5.607-9.146,8.758c-2.739,3.153-4.781,5.761-6.123,7.827c-1.24,2.584-1.964,4.108-2.17,4.573
		c-0.208,0.465-0.31,0.853-0.31,1.163c-0.724,0.724-1.061,2.015-1.008,3.875c0.051,1.86,0.128,3.255,0.233,4.185
		c0.102,0.208,0.206,0.44,0.31,0.697c0.102,0.259,0.465,1.112,1.085,2.558c0.826,0.208,1.911,0.026,3.255-0.542
		c1.342-0.567,2.427-1.008,3.255-1.318c0.102-0.102,1.059-0.31,2.868-0.62c1.807-0.31,2.763-0.567,2.867-0.775
		c1.86,0,3.589,0.026,5.192,0.077c1.602,0.053,3.074-0.644,4.418-2.092c1.342-0.722,2.764-1.342,4.264-1.86
		c1.496-0.516,3.021-1.085,4.572-1.705c0-0.93,0-1.911,0-2.945c0-1.032,0-2.066,0-3.1c-0.52-0.31-1.293-0.671-2.326-1.085
		c-0.414-0.826-0.879-1.86-1.395-3.1c-0.518-1.24-0.465-2.325,0.154-3.255c1.033-0.826,2.531-1.938,4.496-3.333
		c1.961-1.395,3.926-2.867,5.891-4.417c0-0.826,0.023-1.651,0.076-2.48c0.051-0.826,0.078-1.705,0.078-2.635c0-0.62,0-1.24,0-1.86
		C64.029,59.52,64.029,58.9,64.029,58.28z M57.055,85.405c0-1.032,0-2.066,0-3.1c0.102,0,0.205,0,0.309,0c0,1.034,0,2.068,0,3.1
		c0,1.034,0,2.015,0,2.945c-0.104,0-0.207,0-0.309,0C57.055,87.42,57.055,86.439,57.055,85.405z"/>
	<path d="M155.787,110.515c-0.208,0.31-0.465,1.034-0.775,2.17c-0.31,1.139-1.034,2.48-2.17,4.029
		c-5.788,1.86-10.152,4.057-13.098,6.588c-2.944,2.533-5.245,4.728-6.897,6.588c-0.724,0.208-2.196,0.491-4.417,0.853
		c-2.224,0.363-3.487,0.646-3.798,0.853c-1.138,0.208-2.247-0.206-3.332-1.24c-1.085-1.031-3.851-1.55-8.293-1.55
		c-0.31-0.517-0.93-0.335-1.859,0.542c-0.931,0.879-1.5,1.008-1.705,0.388c-2.688-0.31-4.6-1.291-5.735-2.944
		c-1.139-1.652-2.325-3.822-3.565-6.511c-0.104,0-0.879,0.104-2.324,0.31c-0.311-0.721-0.414-1.91-0.311-3.564
		c0.102-1.652,0-2.892-0.31-3.72c-0.828-3.512-0.853-6.82-0.078-9.92c0.775-3.1,1.834-6.355,3.178-9.765
		c1.55-1.446,2.841-2.635,3.875-3.565c1.032-0.93,2.325-2.17,3.875-3.72c0.516-0.516,0.465-0.826-0.155-0.93
		c-0.619-0.102-1.085-0.566-1.395-1.395c-0.31-0.62,0.128-1.782,1.317-3.487c1.187-1.705,1.938-2.763,2.248-3.178
		c0.825-0.93,2.635-1.833,5.425-2.712c2.79-0.876,4.649-1.782,5.58-2.712c3.615-4.132,6.665-7.852,9.145-11.16
		c2.48-3.306,5.425-7.13,8.835-11.47c1.24,0.208,2.48,0.104,3.72-0.31c1.24-0.412,2.582-0.62,4.03-0.62
		c0.722-0.62,1.628-0.361,2.713,0.775c1.085,1.139,2.039,1.344,2.867,0.62c1.86-0.102,3.565,0.286,5.115,1.163
		c1.55,0.879,3.201,1.681,4.96,2.402l6.045,12.865l5.115,15.035l-3.101,10.23h-0.465l-3.72,4.03h-12.4l-7.595-3.41l-13.95-2.79
		l-10.229,1.395c-2.79,4.34-5.142,8.656-7.053,12.943c-1.913,4.289-2.301,8.811-1.162,13.563c2.065,0,4.235-0.594,6.51-1.782
		c2.271-1.188,4.495-1.988,6.665-2.402c0-0.517,1.109-1.318,3.332-2.403c2.221-1.085,3.59-1.782,4.107-2.093
		c2.48-1.755,3.953-2.271,4.418-1.55c0.465,0.725,1.627-0.051,3.487-2.325l6.82-2.48h3.875l4.34,3.1L155.787,110.515z
		 M156.563,68.355c-3.101-3.202-4.937-5.527-5.503-6.975c-0.569-1.446-2.196-2.17-4.883-2.17c-3.1,1.654-4.703,4.444-4.805,8.37
		c-0.414,3.928,0,5.89,1.24,5.89c1.239,0,2.892,1.24,4.96,3.72c1.651-0.206,2.918,0,3.797,0.62c0.877,0.62,1.938,0.518,3.178-0.31
		c1.962-1.24,3.101-2.298,3.41-3.178C158.267,73.446,157.802,71.455,156.563,68.355z"/>
	<path d="M186.321,88.97c0.311-0.102,0.388-0.566,0.232-1.395c-0.155-0.826,0.594-1.756,2.248-2.79
		c0.102-0.102,1.058-1.318,2.867-3.643c1.807-2.325,2.814-3.643,3.022-3.953c4.03-4.65,6.665-6.844,7.905-6.587
		c1.239,0.259,2.736-1.833,4.495-6.278c0.93-0.516,2.349-3.1,4.262-7.75c1.911-4.65,3.279-7.285,4.107-7.905
		c1.756-0.62,3.488-1.213,5.193-1.783c1.705-0.566,3.538-0.954,5.502-1.162c0.102,1.86,0.981,3.076,2.635,3.643
		c1.652,0.569,2.636,1.782,2.945,3.642l1.24,3.1c0.31,0.62,1.109,1.964,2.402,4.03c1.291,2.068,2.093,3.359,2.402,3.875
		c2.271,3.618,3.124,7.312,2.558,11.083c-0.569,3.773-0.337,6.897,0.697,9.377c0.311,3.1,0.257,5.633-0.154,7.595
		c-0.415,1.964-1.294,5.425-2.636,10.385c-0.104-0.102-0.208-0.206-0.31-0.31c-0.104-0.102-0.155-0.257-0.155-0.465
		c-2.068,5.994-3.773,11.368-5.115,16.12c-0.31,1.654-0.673,3.309-1.085,4.959c-0.414,1.654-0.774,3.256-1.085,4.806
		c-1.758,2.274-2.972,4.366-3.643,6.277c-0.673,1.913-2.402,3.333-5.192,4.263c-1.654,0.208-2.894,0.414-3.72,0.62
		c0-0.206-0.104-0.31-0.31-0.31c-2.274,0.207-4.367-0.361-6.278-1.705c-1.913-1.342-3.487-2.893-4.728-4.65
		c-0.724,0.311-1.603,0.518-2.635,0.62c-1.859-2.996-2.998-4.806-3.41-5.425c-0.414-0.621-0.774-1.396-1.085-2.325
		c0.102-0.31-0.182-1.265-0.853-2.868c-0.673-1.601-1.061-2.712-1.162-3.332c0.516-1.859,0.748-2.221,0.697-1.085
		c-0.053,1.138,0.543-1.085,1.782-6.665c0.517-1.342,0.826-2.996,0.931-4.96c0.102-1.962,0.257-3.1,0.465-3.41l1.705-3.41
		l3.875,1.705l1.55,2.635l2.48,0.31c-0.829,2.17-0.802,3.824,0.077,4.96c0.877,1.139,1.265,2.945,1.162,5.425
		c0,0.104-0.673,0.673-2.015,1.705c0.62,1.55,1.109,3.333,1.473,5.348c0.36,2.015,1.008,3.696,1.938,5.037
		c4.441-1.446,7.336-4.495,8.68-9.145c1.342-4.65,2.945-8.937,4.805-12.865c0.826-2.17,0.412-4.519-1.239-7.053
		c-1.654-2.531-2.224-4.882-1.705-7.052c0.411-2.582,0.155-4.054-0.775-4.417c-0.93-0.361-2.015-2.504-3.255-6.433
		c-1.448,1.448-2.479,1.008-3.1-1.317s-1.139-3.073-1.551-2.248c-0.93,0.31-2.843,1.809-5.734,4.495
		c-2.895,2.688-4.186,3.41-3.875,2.17c-1.034-0.102-2.352,0.957-3.953,3.177c-1.603,2.224-3.177,3.953-4.727,5.193
		c-0.415,0.93-2.456,4.238-6.123,9.92c-3.669,5.684-5.865,8.835-6.588,9.455c-2.688,0.62-4.315,0.543-4.882-0.232
		c-0.569-0.775-0.957-1.162-1.163-1.162c0.206,0-1.293,3.1-4.494,9.3c-1.24,1.034-2.531,1.55-3.875,1.55c-1.342,0-2.893,0-4.65,0
		c-1.24-2.271-1.705-4.08-1.396-5.425c0.311-1.342,0.569-3.41,0.775-6.2c0.62-1.55,3.127-4.597,7.518-9.145
		C176.685,94.344,181.361,91.038,186.321,88.97z"/>
	<path d="M264.285,38.44c-0.62-2.271-1.139-3.926-1.551-4.96c0.62-0.31,1.291-0.698,2.016-1.163c0.722-0.465,1.445-0.903,2.17-1.317
		c-0.519-2.17-0.853-4.107-1.008-5.813s0.283-3.589,1.317-5.658c1.652-1.446,3.41-2.17,5.271-2.17c1.859,0,3.875,0,6.045,0
		c2.582,0.31,4.313,0.492,5.192,0.542c0.877,0.053,2.558,0.078,5.037,0.078c1.551-0.31,2.48-0.465,2.79-0.465
		c0.311,0,0.567,0.053,0.775,0.155c1.031-0.62,1.833-1.911,2.402-3.875c0.566-1.962,1.265-3.512,2.093-4.65
		c0.93-0.206,1.833-0.438,2.712-0.698c0.877-0.256,1.783-0.542,2.713-0.853c1.55,3.205,2.531,5.142,2.945,5.813
		c0.411,0.673,0.774,1.267,1.085,1.783c1.445-1.032,2.427-1.652,2.944-1.86c0.311,1.24,0.594,2.325,0.853,3.255
		c0.257,0.93,1.059,3.514,2.403,7.75c6.819,1.138,13.563,2.429,20.227,3.875c6.665,1.448,13.253,3.41,19.763,5.89
		c0.102,0.104,0.257,0.232,0.465,0.387c0.206,0.155,0.412,0.232,0.62,0.232c-1.859,0.724-3.72,1.422-5.58,2.093
		c-1.859,0.673-3.72,1.317-5.58,1.938c-0.619,0.208-1.188,0.414-1.704,0.62c-0.519,0.208-1.034,0.363-1.551,0.465
		c-2.998,0.724-5.788,1.112-8.37,1.163c-2.584,0.053-5.374-0.024-8.369-0.232c-0.62,0.518-0.983,1.138-1.085,1.86
		c-0.829,0.31-1.345,0.414-1.551,0.31c-3.204,0-6.33-0.284-9.377-0.853c-3.05-0.567-6.123-0.799-9.223-0.698
		c-0.828,0.31-2.068,0.673-3.72,1.085c-1.139,3.514-2.895,6.433-5.271,8.758c-2.378,2.325-4.909,4.625-7.595,6.897
		c-0.93,1.964-1.55,3.308-1.86,4.03c-0.31,0.724-0.93,2.274-1.859,4.65c-0.519,2.068-1.034,4.65-1.551,7.75
		c-1.239,0.62-2.17,1.034-2.79,1.24c-3.204,9.198-7.517,17.801-12.942,25.808c-5.425,8.009-9.326,16.715-11.702,26.118
		c-1.654,0.724-2.688,1.139-3.1,1.24c0.102,1.239-0.027,2.378-0.388,3.41c-0.363,1.033-0.697,2.119-1.008,3.254
		c-0.93,0.311-1.782,0.596-2.558,0.854c-0.774,0.259-1.525,0.491-2.247,0.697c-0.519,0-0.983-0.388-1.396-1.163
		c-0.414-0.774-0.724-1.317-0.93-1.628c-0.62,0.621-1.962,1.938-4.03,3.953c-2.065,2.016-3.41,3.022-4.029,3.022
		c2.479-6.2,5.168-12.347,8.06-18.444c2.892-6.097,5.786-12.192,8.68-18.291c2.892-6.716,5.735-13.458,8.525-20.228
		c2.79-6.767,5.115-13.717,6.975-20.848c3.616-1.86,6.302-5.062,8.061-9.61c1.756-4.546,2.944-8.68,3.564-12.4
		c-0.104-0.31-0.104-0.671,0-1.085c-1.964-0.31-3.928-0.645-5.89-1.008C268.211,39.086,266.246,38.75,264.285,38.44z"/>
	<path d="M355.114,67.89c-0.414-0.206-1.681,0.93-3.798,3.41c-2.119,2.48-3.541,3.72-4.263,3.72c-2.79,0-5.27,0.853-7.439,2.558
		c-2.17,1.705-3.72,2.61-4.65,2.712c-2.274,2.894-5.192,6.176-8.757,9.842c-3.565,3.669-5.813,7.106-6.743,10.308
		c-0.93,0.724-2.352,3.797-4.263,9.223c-1.913,5.425-3.332,8.447-4.262,9.067c-1.965,0.93-3.902,1.782-5.813,2.558
		c-1.914,0.774-3.953,1.317-6.123,1.628c-0.31-2.066-0.879-4.159-1.705-6.278c-0.828-2.116-1.499-4.263-2.015-6.433
		c4.96-11.16,10.695-22.138,17.205-32.937c6.51-10.797,11.521-22.139,15.035-34.022c0.93-0.31,2.402-0.024,4.417,0.853
		c2.016,0.879,3.538,1.472,4.572,1.782c0.62,5.064,1.008,6.614,1.163,4.65c0.155-1.961-0.131-0.465-0.853,4.495
		c1.136,0.208,2.608,0,4.417-0.62c1.807-0.62,3.798-1.24,5.968-1.86c0.412-1.032,2.015-2.194,4.805-3.487
		c2.79-1.291,4.65-2.403,5.58-3.333c2.892-0.62,4.701-0.567,5.426,0.155c0.722,0.724,1.239,1.085,1.55,1.085
		c1.239-0.206,4.029,1.705,8.37,5.735c0.205,0.208-0.027,2.248-0.698,6.123c-0.673,3.875-2.041,5.866-4.107,5.968
		c-1.55-0.206-3.23,0.724-5.037,2.79C361.287,69.648,358.626,69.75,355.114,67.89z"/>
	<path d="M401.457,47.74l0.311-0.31c0.93-0.31,1.782-0.543,2.558-0.698c0.774-0.155,3.022-0.644,6.742-1.473
		c0.206,0.519,0.412,0.983,0.62,1.395c0.206,0.414,0.465,0.829,0.775,1.24c2.17-0.206,4.468-0.051,6.897,0.465
		c2.427,0.519,4.417,1.705,5.967,3.565c0.102,0,0.206,0,0.311,0c0.516,0.829,1.291,1.964,2.325,3.41
		c1.239,2.894,1.859,5.839,1.859,8.835c0,2.999-0.208,5.994-0.62,8.99c-1.138,1.448-2.223,2.894-3.255,4.34
		c-1.034,1.448-2.015,2.894-2.945,4.34c-3.618,5.789-5.761,10.954-6.432,15.5c-0.674,4.548-2.507,9.818-5.503,15.81
		c-1.24,0.104-3.618,0.775-7.13,2.016c-3.515,1.239-5.788,1.963-6.82,2.17c-1.034,1.344-2.635,2.455-4.805,3.332
		c-2.17,0.879-3.309,1.422-3.41,1.627c-3.204,1.035-6.873,1.86-11.005,2.48c-4.134,0.62-7.338-0.566-9.61-3.564l-3.255-3.41
		c-0.519-0.826-1.293-1.962-2.325-3.41c-1.239-2.79-1.887-5.682-1.938-8.68c-0.053-2.996,0.232-6.045,0.853-9.145
		c0-4.03,3.229-10.487,9.688-19.375c6.457-8.886,11.649-17.205,15.578-24.955c1.136,0,2.247,0.104,3.332,0.31
		c1.085,0.208,2.194,0.155,3.333-0.155c1.445-1.86,2.581-3.255,3.41-4.185C398.304,47.793,399.804,47.638,401.457,47.74z
		 M376.502,101.06c1.446,4.03,3.488,6.021,6.123,5.967c2.635-0.051,5.863-0.128,9.688-0.232c1.445-1.032,2.892-2.117,4.34-3.255
		c1.446-1.136,3.255-2.686,5.425-4.65c0.826-0.93,1.911-2.764,3.255-5.503c1.342-2.736,2.376-4.778,3.101-6.122
		c1.031-2.582,1.938-5.14,2.712-7.673c0.775-2.531,1.369-5.502,1.783-8.912l-3.875-0.465l-1.86,5.27
		c-1.344,0-2.479,0.698-3.41,2.093c-0.93,1.395-2.17,2.766-3.72,4.107c-0.725,0-1.344-1.729-1.86-5.192
		c-0.518-3.461-1.293-5.193-2.325-5.193c-2.688,2.068-5.296,3.773-7.827,5.115c-2.533,1.344-4.471,3.359-5.813,6.045
		c-1.034,2.688-2.17,5.658-3.41,8.913C377.588,94.627,376.813,97.858,376.502,101.06z"/>
	<path d="M448.11,117.955c1.651-4.029,1.651-6.432,0-7.207c-1.654-0.775-3.1-1.938-4.34-3.488c-0.104-1.032-0.802-3.797-2.093-8.292
		c-1.293-4.495-1.782-7.258-1.473-8.292c-0.414-2.066-0.93-4.907-1.55-8.525c-0.62-3.616-1.395-5.735-2.325-6.355
		c-1.344-2.066-2.402-3.875-3.177-5.425c-0.775-1.55-1.112-3.255-1.008-5.115c-0.93-0.31-1.139-1.782-0.62-4.417
		c0.516-2.635,0.516-4.364,0-5.192c0-4.132-0.131-6.019-0.388-5.658c-0.259,0.363,0.18-1.058,1.317-4.262
		c1.551-1.24,3.229-2.376,5.038-3.41c1.807-1.032,3.383-2.221,4.728-3.565c1.342,1.55,2.504,3.126,3.487,4.728
		c0.98,1.603,1.938,3.23,2.867,4.882c0.206,1.138-0.131,2.868-1.007,5.192c-0.88,2.325-1.163,4.006-0.853,5.038
		c-1.139,2.894-1.371,4.599-0.698,5.115c0.671,0.518,1.059,2.48,1.163,5.89c0.516,0.62,0.877,2.17,1.085,4.65
		c0.206,2.48,0.93,4.65,2.17,6.51c0.102,0.31,0.388,1.473,0.853,3.488c0.465,2.015,0.748,3.126,0.853,3.332
		c0.93,1.86,1.627,3.824,2.093,5.89c0.465,2.068,0.853,2.999,1.162,2.79c0.516-0.31,1.652-2.015,3.41-5.115
		c1.756-3.1,3.047-5.476,3.875-7.13c0.311-0.62,1.059-2.143,2.248-4.572c1.186-2.427,2.092-4.107,2.713-5.038h-0.311
		c0.516-1.136,0.826-1.705,0.93-1.705c1.24-2.582,1.473-4.054,0.697-4.417c-0.775-0.361-0.596-1.938,0.543-4.728
		c0.619-0.31,1.318-1.342,2.092-3.1c0.775-1.756,1.369-2.996,1.783-3.72c0.826-0.62,2.607-1.938,5.348-3.953
		c2.736-2.015,4.984-3.744,6.742-5.192c0.311,0.208,0.621,0.492,0.93,0.853c0.311,0.363,0.93,0.802,1.861,1.317
		c1.549,0.519,2.58,0.775,3.1,0.775c0.205-0.31,0.465-0.671,0.775-1.085c0.309-0.412,0.619-0.876,0.93-1.395
		c0.412,0,0.852,0,1.316,0s1.008,0,1.629,0l0.309-0.31c0.621,0.31,0.877,0.415,0.775,0.31c-0.104,0.31-0.26,0.879-0.465,1.705
		c-0.104,0-0.26,0.104-0.465,0.31c-0.621,1.24-1.268,2.533-1.938,3.875c-0.674,1.344-2.506,5.219-5.502,11.625
		c-0.209,1.55-0.775,3.824-1.705,6.82l-11.471,15.81c-0.828,1.55-1.604,3.178-2.324,4.883c-0.725,1.705-1.551,3.642-2.48,5.813
		c-0.828,0.828-1.449,1.782-1.859,2.867c-0.414,1.085-0.932,2.042-1.551,2.868c-1.24,2.688-1.758,3.747-1.551,3.177
		c0.207-0.566-0.154,0.441-1.084,3.022c-0.414,0.519-0.93,1.189-1.551,2.015v-0.154c-2.273,4.858-4.494,9.765-6.664,14.725
		c-2.17,4.961-4.239,9.869-6.201,14.725c-1.55,4.238-2.972,8.27-4.263,12.091c-1.293,3.821-2.661,6.975-4.107,9.455
		c-1.344,2.376-3.049,3.667-5.114,3.875c-1.965-0.519-2.844-0.88-2.636-1.085c-0.93-0.62-2.17-0.93-3.72-0.93
		s-2.015-1.189-1.395-3.565c0.825-1.24,1.213-2.378,1.162-3.41c-0.054-1.034,0.697-2.429,2.247-4.185
		c2.17-1.137,4.418-4.52,6.743-10.152c2.325-5.631,3.848-10.669,4.572-15.113c2.686-5.27,3.899-7.387,3.643-6.355
		C447.154,123.794,447.387,122.193,448.11,117.955z"/>
	<path d="M498.639,88.97c0.311-0.102,0.389-0.566,0.232-1.395c-0.154-0.826,0.594-1.756,2.248-2.79
		c0.102-0.102,1.059-1.318,2.867-3.643c1.807-2.325,2.814-3.643,3.023-3.953c4.029-4.65,6.664-6.844,7.904-6.587
		c1.24,0.259,2.736-1.833,4.496-6.278c0.93-0.516,2.348-3.1,4.262-7.75c1.91-4.65,3.279-7.285,4.107-7.905
		c1.756-0.62,3.488-1.213,5.193-1.783c1.705-0.566,3.537-0.954,5.502-1.162c0.102,1.86,0.98,3.076,2.635,3.643
		c1.652,0.569,2.635,1.782,2.945,3.642l1.24,3.1c0.309,0.62,1.109,1.964,2.402,4.03c1.291,2.068,2.092,3.359,2.402,3.875
		c2.271,3.618,3.123,7.312,2.557,11.083c-0.568,3.773-0.336,6.897,0.697,9.377c0.311,3.1,0.258,5.633-0.154,7.595
		c-0.414,1.964-1.293,5.425-2.635,10.385c-0.104-0.102-0.209-0.206-0.311-0.31c-0.104-0.102-0.154-0.257-0.154-0.465
		c-2.068,5.994-3.773,11.368-5.115,16.12c-0.311,1.654-0.674,3.309-1.086,4.959c-0.414,1.654-0.773,3.256-1.084,4.806
		c-1.758,2.274-2.973,4.366-3.643,6.277c-0.674,1.913-2.402,3.333-5.193,4.263c-1.654,0.208-2.893,0.414-3.719,0.62
		c0-0.206-0.105-0.31-0.311-0.31c-2.273,0.207-4.367-0.361-6.277-1.705c-1.914-1.342-3.488-2.893-4.729-4.65
		c-0.723,0.311-1.602,0.518-2.635,0.62c-1.859-2.996-2.998-4.806-3.41-5.425c-0.414-0.621-0.773-1.396-1.084-2.325
		c0.102-0.31-0.182-1.265-0.854-2.868c-0.672-1.601-1.061-2.712-1.162-3.332c0.516-1.859,0.748-2.221,0.697-1.085
		c-0.053,1.138,0.543-1.085,1.783-6.665c0.516-1.342,0.826-2.996,0.93-4.96c0.102-1.962,0.258-3.1,0.465-3.41l1.705-3.41
		l3.875,1.705l1.551,2.635l2.48,0.31c-0.83,2.17-0.803,3.824,0.076,4.96c0.877,1.139,1.266,2.945,1.162,5.425
		c0,0.104-0.672,0.673-2.014,1.705c0.619,1.55,1.109,3.333,1.473,5.348c0.359,2.015,1.008,3.696,1.938,5.037
		c4.441-1.446,7.336-4.495,8.68-9.145c1.342-4.65,2.945-8.937,4.805-12.865c0.826-2.17,0.412-4.519-1.24-7.053
		c-1.654-2.531-2.223-4.882-1.705-7.052c0.412-2.582,0.156-4.054-0.775-4.417c-0.93-0.361-2.014-2.504-3.254-6.433
		c-1.449,1.448-2.48,1.008-3.1-1.317c-0.621-2.325-1.139-3.073-1.551-2.248c-0.93,0.31-2.844,1.809-5.734,4.495
		c-2.895,2.688-4.186,3.41-3.875,2.17c-1.035-0.102-2.352,0.957-3.953,3.177c-1.604,2.224-3.178,3.953-4.727,5.193
		c-0.416,0.93-2.457,4.238-6.123,9.92c-3.67,5.684-5.865,8.835-6.588,9.455c-2.688,0.62-4.316,0.543-4.883-0.232
		c-0.568-0.775-0.957-1.162-1.162-1.162c0.205,0-1.293,3.1-4.494,9.3c-1.24,1.034-2.531,1.55-3.875,1.55c-1.342,0-2.893,0-4.65,0
		c-1.24-2.271-1.705-4.08-1.396-5.425c0.311-1.342,0.57-3.41,0.775-6.2c0.621-1.55,3.127-4.597,7.518-9.145
		C489.002,94.344,493.68,91.038,498.639,88.97z"/>
	<path d="M576.602,38.44c-0.619-2.271-1.139-3.926-1.551-4.96c0.621-0.31,1.291-0.698,2.016-1.163
		c0.723-0.465,1.445-0.903,2.17-1.317c-0.518-2.17-0.852-4.107-1.008-5.813c-0.154-1.705,0.283-3.589,1.318-5.658
		c1.652-1.446,3.41-2.17,5.27-2.17s3.875,0,6.045,0c2.582,0.31,4.314,0.492,5.193,0.542c0.877,0.053,2.557,0.078,5.037,0.078
		c1.551-0.31,2.48-0.465,2.789-0.465c0.311,0,0.568,0.053,0.775,0.155c1.031-0.62,1.834-1.911,2.402-3.875
		c0.566-1.962,1.266-3.512,2.094-4.65c0.93-0.206,1.832-0.438,2.711-0.698c0.877-0.256,1.783-0.542,2.713-0.853
		c1.551,3.205,2.531,5.142,2.945,5.813c0.412,0.673,0.775,1.267,1.086,1.783c1.445-1.032,2.426-1.652,2.943-1.86
		c0.311,1.24,0.594,2.325,0.854,3.255c0.256,0.93,1.059,3.514,2.402,7.75c6.82,1.138,13.563,2.429,20.227,3.875
		c6.666,1.448,13.254,3.41,19.764,5.89c0.102,0.104,0.256,0.232,0.465,0.387c0.205,0.155,0.412,0.232,0.619,0.232
		c-1.859,0.724-3.719,1.422-5.58,2.093c-1.859,0.673-3.719,1.317-5.58,1.938c-0.619,0.208-1.188,0.414-1.703,0.62
		c-0.52,0.208-1.035,0.363-1.551,0.465c-2.998,0.724-5.789,1.112-8.371,1.163c-2.584,0.053-5.373-0.024-8.369-0.232
		c-0.619,0.518-0.982,1.138-1.084,1.86c-0.83,0.31-1.346,0.414-1.551,0.31c-3.205,0-6.33-0.284-9.377-0.853
		c-3.051-0.567-6.123-0.799-9.223-0.698c-0.828,0.31-2.068,0.673-3.721,1.085c-1.139,3.514-2.895,6.433-5.27,8.758
		c-2.379,2.325-4.91,4.625-7.596,6.897c-0.93,1.964-1.549,3.308-1.859,4.03c-0.311,0.724-0.93,2.274-1.859,4.65
		c-0.52,2.068-1.035,4.65-1.551,7.75c-1.24,0.62-2.17,1.034-2.791,1.24c-3.203,9.198-7.516,17.801-12.941,25.808
		c-5.426,8.009-9.326,16.715-11.703,26.118c-1.654,0.724-2.688,1.139-3.1,1.24c0.102,1.239-0.027,2.378-0.387,3.41
		c-0.363,1.033-0.697,2.119-1.008,3.254c-0.93,0.311-1.783,0.596-2.559,0.854c-0.773,0.259-1.525,0.491-2.246,0.697
		c-0.52,0-0.984-0.388-1.396-1.163c-0.414-0.774-0.723-1.317-0.93-1.628c-0.619,0.621-1.961,1.938-4.029,3.953
		c-2.066,2.016-3.41,3.022-4.029,3.022c2.479-6.2,5.168-12.347,8.059-18.444c2.893-6.097,5.787-12.192,8.68-18.291
		c2.893-6.716,5.736-13.458,8.525-20.228c2.791-6.767,5.115-13.717,6.975-20.848c3.617-1.86,6.303-5.062,8.061-9.61
		c1.756-4.546,2.945-8.68,3.564-12.4c-0.104-0.31-0.104-0.671,0-1.085c-1.963-0.31-3.928-0.645-5.889-1.008
		C580.528,39.086,578.563,38.75,576.602,38.44z"/>
	<path d="M648.833,47.74l0.311-0.31c0.93-0.31,1.781-0.543,2.557-0.698s3.023-0.644,6.742-1.473
		c0.207,0.519,0.412,0.983,0.621,1.395c0.205,0.414,0.465,0.829,0.775,1.24c2.17-0.206,4.467-0.051,6.896,0.465
		c2.428,0.519,4.418,1.705,5.967,3.565c0.102,0,0.207,0,0.311,0c0.516,0.829,1.291,1.964,2.326,3.41
		c1.238,2.894,1.859,5.839,1.859,8.835c0,2.999-0.209,5.994-0.621,8.99c-1.137,1.448-2.223,2.894-3.254,4.34
		c-1.035,1.448-2.016,2.894-2.945,4.34c-3.619,5.789-5.762,10.954-6.432,15.5c-0.674,4.548-2.508,9.818-5.504,15.81
		c-1.24,0.104-3.617,0.775-7.129,2.016c-3.516,1.239-5.789,1.963-6.82,2.17c-1.035,1.344-2.635,2.455-4.805,3.332
		c-2.17,0.879-3.309,1.422-3.41,1.627c-3.205,1.035-6.873,1.86-11.006,2.48s-7.338-0.566-9.609-3.564l-3.256-3.41
		c-0.518-0.826-1.293-1.962-2.324-3.41c-1.24-2.79-1.887-5.682-1.938-8.68c-0.053-2.996,0.232-6.045,0.852-9.145
		c0-4.03,3.229-10.487,9.688-19.375c6.457-8.886,11.65-17.205,15.578-24.955c1.137,0,2.248,0.104,3.332,0.31
		c1.086,0.208,2.195,0.155,3.334-0.155c1.445-1.86,2.58-3.255,3.41-4.185C645.678,47.793,647.178,47.638,648.833,47.74z
		 M623.877,101.06c1.445,4.03,3.488,6.021,6.123,5.967c2.635-0.051,5.863-0.128,9.688-0.232c1.445-1.032,2.891-2.117,4.34-3.255
		c1.445-1.136,3.254-2.686,5.424-4.65c0.826-0.93,1.912-2.764,3.256-5.503c1.342-2.736,2.375-4.778,3.1-6.122
		c1.031-2.582,1.938-5.14,2.713-7.673c0.775-2.531,1.369-5.502,1.783-8.912l-3.875-0.465l-1.861,5.27
		c-1.344,0-2.479,0.698-3.41,2.093c-0.93,1.395-2.17,2.766-3.719,4.107c-0.725,0-1.344-1.729-1.861-5.192
		c-0.518-3.461-1.293-5.193-2.324-5.193c-2.688,2.068-5.297,3.773-7.828,5.115c-2.533,1.344-4.471,3.359-5.813,6.045
		c-1.033,2.688-2.17,5.658-3.41,8.913C624.963,94.627,624.188,97.858,623.877,101.06z"/>
	<path d="M657.356,172.36c0-0.208-0.051-0.519-0.156-0.93c-0.102-0.415-0.359-1.759-0.773-4.03c-2.377,0-4.186,0.051-5.426,0.155
		c0-0.725-0.051-1.604-0.154-2.636c-0.102-1.033-0.311-1.758-0.621-2.17c2.17-3.617,4.367-7.156,6.588-10.617
		c2.223-3.461,4.418-6.948,6.588-10.463c8.369-15.086,14.361-26.788,17.98-35.107c3.615-8.317,6.301-14.493,8.059-18.522
		c0.723-0.93,1.652-2.376,2.791-4.34c1.135-1.961,1.705-3.667,1.705-5.115c-0.621-0.206-1.217-0.438-1.783-0.698
		c-0.568-0.256-1.162-0.542-1.783-0.852c0-0.206,0.311-0.749,0.932-1.628c0.619-0.876,1.445-2.247,2.479-4.107
		c0.311-0.93,0.854-2.349,1.629-4.262c0.773-1.911,1.162-3.488,1.162-4.728c1.135-0.102,2.092-0.232,2.867-0.388
		c0.775-0.155,2.713-0.387,5.813-0.697c0.205-0.206,0.412-0.31,0.619-0.31c1.756-3.1,3.488-6.251,5.193-9.455
		c1.705-3.202,3.434-6.406,5.193-9.61c1.65-1.342,3.201-2.686,4.648-4.03c1.447-1.342,2.688-2.945,3.721-4.805
		c0.311,0,0.697-0.024,1.162-0.078c0.465-0.051,0.904-0.128,1.318-0.232c1.031-3.306,2.246-6.639,3.643-9.998
		c1.395-3.357,2.814-6.689,4.262-9.998c0.412-0.206,1.291-0.257,2.635-0.155c0.621,2.688,1.137,6.2,1.551,10.54
		c0.311,0.724,0.67,1.395,1.084,2.015c1.447-1.24,2.48-1.911,3.102-2.015c0.619,0.724,0.824,1.216,0.619,1.473
		c-0.209,0.259-0.311,0.751-0.311,1.473c-2.479,4.96-4.832,10.024-7.053,15.19c-2.223,5.168-4.006,10.385-5.348,15.655
		c-0.104,0.415-0.182,0.853-0.232,1.318c-0.053,0.465-0.076,0.906-0.076,1.317c1.859,0,3.77-0.257,5.734-0.775
		c1.961-0.516,3.875-0.93,5.734-1.24l1.24-1.24c3.617-2.272,7.441-3.875,11.471-4.805s8.162-1.705,12.4-2.325
		c0.102-0.102,1.938-0.412,5.502-0.93c3.564-0.516,5.449-0.826,5.658-0.93c2.375-0.31,3.77-0.516,4.184-0.62
		c0.412-0.102,0.775-0.155,1.086-0.155c-5.27,4.96-8.371,7.881-9.301,8.757c-0.93,0.879-1.498,1.473-1.705,1.783
		c-2.479,0-4.521,0.078-6.121,0.232c-1.604,0.155-3.334,0.906-5.193,2.248c-1.654,1.964-2.895,3.773-3.721,5.425
		c-5.477,2.378-10.771,4.909-15.887,7.595c-5.115,2.688-10.205,5.478-15.268,8.37c-0.725,2.068-0.053,4.185,2.016,6.355
		c1.031,0.208,1.756,0.414,2.17,0.62c1.445,3.41,2.969,7.44,4.572,12.09c1.602,4.65,4.313,7.699,8.137,9.146
		c0,0.518,0,1.007,0,1.472c0,0.466,0,0.905,0,1.317c1.652,0.725,3.307,1.449,4.961,2.17c1.65,0.725,3.1,1.759,4.34,3.101
		c-0.209,1.239-0.311,2.17-0.311,2.79c-2.17-0.206-4.316-0.438-6.432-0.697c-2.119-0.258-4.264-0.543-6.434-0.854
		c-0.518-0.205-1.061-0.542-1.627-1.007c-0.568-0.466-2.301-1.938-5.193-4.417c-3.719-2.582-8.164-5.449-13.33-8.603
		c-5.168-3.151-10.074-4.624-14.725-4.417c-2.377,2.584-4.703,5.168-6.975,7.75c-2.273,2.584-4.549,5.114-6.82,7.595
		c-5.064,9.92-10.488,19.584-16.275,28.985C669.084,153.708,663.245,163.06,657.356,172.36z"/>
	<path d="M788.174,117.955c1.65-4.029,1.65-6.432,0-7.207c-1.654-0.775-3.1-1.938-4.34-3.488c-0.105-1.032-0.803-3.797-2.094-8.292
		c-1.293-4.495-1.781-7.258-1.473-8.292c-0.414-2.066-0.93-4.907-1.549-8.525c-0.621-3.616-1.395-5.735-2.326-6.355
		c-1.344-2.066-2.402-3.875-3.176-5.425c-0.775-1.55-1.113-3.255-1.008-5.115c-0.93-0.31-1.139-1.782-0.621-4.417
		c0.516-2.635,0.516-4.364,0-5.192c0-4.132-0.131-6.019-0.387-5.658c-0.26,0.363,0.18-1.058,1.316-4.262
		c1.551-1.24,3.229-2.376,5.039-3.41c1.807-1.032,3.383-2.221,4.727-3.565c1.342,1.55,2.504,3.126,3.488,4.728
		c0.98,1.603,1.938,3.23,2.867,4.882c0.205,1.138-0.131,2.868-1.008,5.192c-0.879,2.325-1.162,4.006-0.852,5.038
		c-1.139,2.894-1.371,4.599-0.699,5.115c0.672,0.518,1.059,2.48,1.164,5.89c0.516,0.62,0.877,2.17,1.084,4.65s0.93,4.65,2.17,6.51
		c0.102,0.31,0.389,1.473,0.854,3.488c0.465,2.015,0.748,3.126,0.852,3.332c0.93,1.86,1.627,3.824,2.094,5.89
		c0.465,2.068,0.852,2.999,1.162,2.79c0.516-0.31,1.65-2.015,3.41-5.115c1.756-3.1,3.047-5.476,3.875-7.13
		c0.309-0.62,1.059-2.143,2.246-4.572c1.188-2.427,2.094-4.107,2.713-5.038h-0.311c0.518-1.136,0.826-1.705,0.932-1.705
		c1.238-2.582,1.473-4.054,0.697-4.417c-0.775-0.361-0.596-1.938,0.541-4.728c0.621-0.31,1.318-1.342,2.094-3.1
		c0.775-1.756,1.367-2.996,1.781-3.72c0.826-0.62,2.609-1.938,5.348-3.953s4.984-3.744,6.744-5.192
		c0.309,0.208,0.619,0.492,0.93,0.853c0.309,0.363,0.93,0.802,1.859,1.317c1.551,0.519,2.582,0.775,3.1,0.775
		c0.207-0.31,0.465-0.671,0.775-1.085c0.311-0.412,0.619-0.876,0.93-1.395c0.412,0,0.854,0,1.318,0s1.008,0,1.627,0l0.311-0.31
		c0.619,0.31,0.877,0.415,0.775,0.31c-0.105,0.31-0.26,0.879-0.467,1.705c-0.104,0-0.258,0.104-0.465,0.31
		c-0.619,1.24-1.266,2.533-1.938,3.875c-0.672,1.344-2.506,5.219-5.502,11.625c-0.209,1.55-0.775,3.824-1.705,6.82l-11.469,15.81
		c-0.83,1.55-1.604,3.178-2.326,4.883c-0.725,1.705-1.549,3.642-2.48,5.813c-0.828,0.828-1.447,1.782-1.859,2.867
		c-0.414,1.085-0.93,2.042-1.551,2.868c-1.238,2.688-1.758,3.747-1.549,3.177c0.205-0.566-0.156,0.441-1.086,3.022
		c-0.414,0.519-0.93,1.189-1.549,2.015v-0.154c-2.275,4.858-4.496,9.765-6.666,14.725c-2.17,4.961-4.238,9.869-6.199,14.725
		c-1.551,4.238-2.973,8.27-4.264,12.091c-1.293,3.821-2.66,6.975-4.107,9.455c-1.344,2.376-3.049,3.667-5.113,3.875
		c-1.965-0.519-2.844-0.88-2.637-1.085c-0.93-0.62-2.17-0.93-3.719-0.93c-1.551,0-2.016-1.189-1.395-3.565
		c0.824-1.24,1.213-2.378,1.162-3.41c-0.055-1.034,0.697-2.429,2.246-4.185c2.17-1.137,4.418-4.52,6.744-10.152
		c2.324-5.631,3.848-10.669,4.572-15.113c2.686-5.27,3.898-7.387,3.643-6.355C787.217,123.794,787.45,122.193,788.174,117.955z"/>
	<path d="M865.672,47.74l0.311-0.31c0.93-0.31,1.781-0.543,2.557-0.698s3.023-0.644,6.742-1.473
		c0.207,0.519,0.412,0.983,0.621,1.395c0.205,0.414,0.465,0.829,0.775,1.24c2.17-0.206,4.467-0.051,6.896,0.465
		c2.428,0.519,4.418,1.705,5.967,3.565c0.102,0,0.207,0,0.311,0c0.516,0.829,1.291,1.964,2.326,3.41
		c1.238,2.894,1.859,5.839,1.859,8.835c0,2.999-0.209,5.994-0.621,8.99c-1.137,1.448-2.223,2.894-3.254,4.34
		c-1.035,1.448-2.016,2.894-2.945,4.34c-3.619,5.789-5.762,10.954-6.432,15.5c-0.674,4.548-2.508,9.818-5.504,15.81
		c-1.24,0.104-3.617,0.775-7.129,2.016c-3.516,1.239-5.789,1.963-6.82,2.17c-1.035,1.344-2.635,2.455-4.805,3.332
		c-2.17,0.879-3.309,1.422-3.41,1.627c-3.205,1.035-6.873,1.86-11.006,2.48s-7.338-0.566-9.609-3.564l-3.256-3.41
		c-0.518-0.826-1.293-1.962-2.324-3.41c-1.24-2.79-1.887-5.682-1.938-8.68c-0.053-2.996,0.232-6.045,0.852-9.145
		c0-4.03,3.229-10.487,9.688-19.375c6.457-8.886,11.65-17.205,15.578-24.955c1.137,0,2.248,0.104,3.332,0.31
		c1.086,0.208,2.195,0.155,3.334-0.155c1.445-1.86,2.58-3.255,3.41-4.185C862.518,47.793,864.018,47.638,865.672,47.74z
		 M840.717,101.06c1.445,4.03,3.488,6.021,6.123,5.967c2.635-0.051,5.863-0.128,9.688-0.232c1.445-1.032,2.891-2.117,4.34-3.255
		c1.445-1.136,3.254-2.686,5.424-4.65c0.826-0.93,1.912-2.764,3.256-5.503c1.342-2.736,2.375-4.778,3.1-6.122
		c1.031-2.582,1.938-5.14,2.713-7.673c0.775-2.531,1.369-5.502,1.783-8.912l-3.875-0.465l-1.861,5.27
		c-1.344,0-2.479,0.698-3.41,2.093c-0.93,1.395-2.17,2.766-3.719,4.107c-0.725,0-1.344-1.729-1.861-5.192
		c-0.518-3.461-1.293-5.193-2.324-5.193c-2.688,2.068-5.297,3.773-7.828,5.115c-2.533,1.344-4.471,3.359-5.813,6.045
		c-1.033,2.688-2.17,5.658-3.41,8.913C841.803,94.627,841.028,97.858,840.717,101.06z"/>
</g>
</svg>
